<?xml version="1.0" encoding="UTF-8" standalone="no"?><!DOCTYPE svg PUBLIC "-//W3C//DTD SVG 1.1//EN" "http://www.w3.org/Graphics/SVG/1.1/DTD/svg11.dtd"><svg width="100%" height="100%" viewBox="0 0 3038 566" version="1.1" xmlns="http://www.w3.org/2000/svg" xmlns:xlink="http://www.w3.org/1999/xlink" xml:space="preserve" xmlns:serif="http://www.serif.com/" style="fill-rule:evenodd;clip-rule:evenodd;stroke-linejoin:round;stroke-miterlimit:2;"><path d="M678.604,73.722c-105.637,-0 -190.75,86.637 -191.506,208.993c-0.756,120.844 84.363,208.244 191.506,208.244c107.938,0 192.288,-87.4 192.288,-208.244c-0,-122.356 -85.888,-208.993 -192.288,-208.993" style="fill:#37007d;fill-rule:nonzero;"/><path d="M678.604,0.004c-157.312,-0 -275.856,123.875 -275.856,283.468c0,161.125 117.788,281.957 275.856,281.957c158.85,-0 276.638,-120.832 276.638,-281.957c-0,-159.593 -119.306,-283.468 -276.638,-283.468m0,490.956c-107.143,-0 -192.262,-87.406 -191.506,-208.244c0.756,-122.356 85.869,-208.994 191.506,-208.994c106.4,0 192.288,86.638 192.288,208.994c-0,120.838 -84.35,208.244 -192.288,208.244" style="fill:#ff5300;fill-rule:nonzero;"/><path d="M0,10.637l0,542.632l78.269,-0l-0,-234.844l253.075,-0l-0,-74.481l-253.075,-0l-0,-158.063l273.594,0l-0,-75.244l-351.863,0Z" style="fill-rule:nonzero;"/><path d="M2195.48,250.035l-75.256,0l-0,-120.081l72.206,0c50.175,0 79.8,23.569 79.8,59.281c-0,35.719 -26.594,60.8 -76.75,60.8m196.837,-66.887c0,-108.669 -96.525,-172.513 -201.406,-172.513l-189.987,0l-0,542.632l119.3,-0l-0,-195.319l56.262,-0l146.662,195.319l136.801,-0l-164.913,-218.863c56.238,-26.612 97.281,-74.481 97.281,-151.256" style="fill-rule:nonzero;"/><path d="M1120.11,259.153l0,-174.031l92.713,-0c62.325,-0 109.45,27.356 109.45,85.881c-0,63.075 -47.881,88.15 -109.45,88.15l-92.713,-0Zm281.207,-88.15c-0,-110.2 -91.207,-160.369 -190.769,-160.369l-167.944,0l0,542.631l77.506,0l0,-219.637l69.163,-0l170.237,219.637l97.269,0l-180.112,-230.268c58.525,-11.394 124.65,-66.119 124.65,-151.994" style="fill-rule:nonzero;"/><path d="M2754.8,116.277c-82.081,-0 -157.331,59.275 -157.331,166.437c-0,102.606 74.475,165.694 157.331,165.694c82.812,-0 158.069,-63.088 158.069,-165.694c-0,-106.394 -75.994,-166.437 -158.069,-166.437" style="fill:#ff5300;fill-rule:nonzero;"/><path d="M2754.8,0.004c-158.088,0.756 -282.744,123.875 -282.744,282.712c0,162.638 132.256,282.713 282.744,281.963c150.45,-0.757 282.7,-119.325 282.7,-281.963c-0,-158.837 -124.631,-283.481 -282.7,-282.712m-0,448.4c-82.856,-0 -157.331,-63.082 -157.331,-165.688c-0,-107.169 75.25,-166.437 157.331,-166.437c82.075,-0 158.069,60.037 158.069,166.437c-0,102.606 -75.257,165.688 -158.069,165.688" style="fill:#37007d;fill-rule:nonzero;"/><path d="M1724.32,263.722l-72.182,-0l0,-135.288l72.182,0c55.506,0 89.681,25.088 89.681,66.888c-0,38.756 -34.175,68.4 -89.681,68.4m-3.788,-253.088l-187.706,0l-0,542.631l119.312,0l0,-176.306l75.238,0c116.269,0 204.431,-75.231 204.431,-183.162c0,-123.875 -96.519,-183.163 -211.275,-183.163" style="fill-rule:nonzero;"/></svg>