<?xml version="1.0" encoding="UTF-8" standalone="no"?>
<!DOCTYPE svg PUBLIC "-//W3C//DTD SVG 1.1//EN" "http://www.w3.org/Graphics/SVG/1.1/DTD/svg11.dtd">
<svg width="100%" height="100%" viewBox="0 0 919 684" version="1.1" xmlns="http://www.w3.org/2000/svg" xmlns:xlink="http://www.w3.org/1999/xlink" xml:space="preserve" xmlns:serif="http://www.serif.com/" style="fill-rule:evenodd;clip-rule:evenodd;stroke-linejoin:round;stroke-miterlimit:2;">
    <g transform="matrix(-1.88528,0.66761,0.66761,1.88528,361.906,604.917)">
        <path d="M8.69,-49.833C21.665,-49.833 32.119,-39.192 32.212,-24.164C32.305,-9.32 21.85,1.415 8.69,1.415C-4.567,1.415 -14.927,-9.321 -14.928,-24.163C-14.927,-39.192 -4.378,-49.833 8.69,-49.833" style="fill:rgb(55,0,125);fill-rule:nonzero;"/>
    </g>
    <g transform="matrix(2,0,0,2,306.208,630.688)">
        <path d="M0,-65.495C-18.214,-59.045 -26.86,-39.843 -20.317,-21.364C-13.711,-2.709 4.881,6.451 23.183,-0.03C41.574,-6.542 50.258,-25.362 43.652,-44.017C37.108,-62.495 18.216,-71.946 0,-65.495M20.13,-8.651C7.724,-4.258 -5.715,-10.888 -10.582,-24.911C-15.511,-39.108 -9.209,-52.629 3.022,-56.96C15.341,-61.322 28.838,-54.813 33.854,-40.646C38.809,-26.655 32.626,-13.077 20.13,-8.651" style="fill:rgb(255,83,0);fill-rule:nonzero;"/>
    </g>
    <g transform="matrix(2,0,0,2,149.941,654.605)">
        <path d="M0,-48.399L22.248,14.427L31.31,11.218L21.681,-15.972L50.983,-26.348L47.929,-34.972L18.627,-24.596L12.147,-42.896L43.824,-54.114L40.739,-62.826L0,-48.399Z" style="fill-rule:nonzero;"/>
    </g>
    <g transform="matrix(2,0,0,2,677.963,455.721)">
        <path d="M0,-11.255L-8.713,-8.17L-13.636,-22.073L-5.277,-25.033C0.532,-27.09 4.929,-25.576 6.394,-21.441C7.858,-17.305 5.807,-13.311 0,-11.255M20.047,-27.069C15.592,-39.651 1.799,-43.086 -10.344,-38.785L-32.342,-30.996L-10.094,31.831L3.72,26.939L-4.288,4.325L2.225,2.018L27.214,18.62L43.053,13.011L14.986,-5.568C20.406,-10.955 23.195,-18.18 20.047,-27.069" style="fill-rule:nonzero;"/>
    </g>
    <g transform="matrix(2,0,0,2,429.696,524.836)">
        <path d="M0,-0.666L-7.135,-20.815L3.599,-24.617C10.815,-27.172 17.393,-25.937 19.792,-19.161C22.378,-11.858 17.863,-6.992 10.734,-4.468L0,-0.666ZM28.944,-22.402C24.426,-35.161 11.809,-37.23 0.282,-33.147L-19.163,-26.262L3.085,36.564L12.059,33.387L3.054,7.957L11.061,5.121L39.777,23.571L51.039,19.583L20.744,0.307C27.053,-3.412 32.465,-12.459 28.944,-22.402" style="fill-rule:nonzero;"/>
    </g>
    <g transform="matrix(-1.88529,0.667586,0.667586,1.88529,835.676,426.618)">
        <path d="M6.735,-39.644C16.816,-39.644 26.06,-32.364 26.059,-19.201C26.059,-6.598 16.912,1.151 6.735,1.15C-3.437,1.15 -12.681,-6.598 -12.68,-19.201C-12.68,-32.27 -3.346,-39.644 6.735,-39.644" style="fill:rgb(255,83,0);fill-rule:nonzero;"/>
    </g>
    <g transform="matrix(2,0,0,2,786.977,459.579)">
        <path d="M0,-65.065C-18.273,-58.496 -27.657,-39.13 -21.145,-20.74C-14.477,-1.91 5.759,6.57 23.152,0.313C40.54,-5.942 50.991,-25.093 44.323,-43.923C37.81,-62.314 18.27,-71.635 0,-65.065M18.385,-13.148C8.791,-9.752 -2.418,-14.002 -6.625,-25.882C-11.019,-38.29 -4.736,-48.238 4.767,-51.603C14.271,-54.968 25.531,-51.132 29.893,-38.814C34.1,-26.933 27.973,-16.544 18.385,-13.148" style="fill:rgb(55,0,125);fill-rule:nonzero;"/>
    </g>
    <g transform="matrix(2,0,0,2,569.983,490.062)">
        <path d="M0,-7.523L-8.357,-4.564L-13.904,-20.227L-5.547,-23.187C0.879,-25.462 5.865,-23.959 7.579,-19.119C9.167,-14.632 6.426,-9.798 0,-7.523M-10.815,-36.67L-32.548,-28.974L-10.3,33.852L3.514,28.96L-3.714,8.548L4.996,5.463C18.458,0.696 25.582,-11.629 21.156,-24.127C16.077,-38.468 2.471,-41.375 -10.815,-36.67" style="fill-rule:nonzero;"/>
    </g>
    <g transform="matrix(2,0,0,2,0,34.612)">
        <path d="M0,221.281L53.205,238.587L55.702,230.911L2.496,213.606L0,221.281ZM10.101,190.508L59.171,217.386L63.048,210.308L25.387,189.678L25.462,189.54L61.381,191.168L64.694,185.12L43.847,155.653L43.922,155.515L81.72,176.22L85.56,169.211L36.491,142.331L31.447,151.541L53.942,182.894L53.866,183.031L15.108,181.367L10.101,190.508ZM60.854,111.861L90.252,163.189L95.833,156.827L89.449,145.806L103.918,129.312L115.677,134.207L121.258,127.845L66.59,105.322L60.854,111.861ZM96.602,126.126L85.389,138.908L71.936,115.745L96.602,126.126ZM146.075,110.025C158.451,100.668 160.363,84.487 151.431,72.674C150.628,71.611 149.667,70.47 148.896,69.58L128.769,84.798L133.259,90.736L146.51,80.717C151.033,87.219 149.709,97.552 142.021,103.364C132.395,110.642 120.349,107.962 113.118,98.399C105.699,88.585 106.952,76.341 115.641,69.772C122.079,64.904 128.741,65.27 134.282,67.662L137.59,59.954C129.82,56.693 119.916,56.716 111.04,63.427C98.164,73.162 96.194,90.565 106.165,103.754C116.136,116.943 133.449,119.572 146.075,110.025M150.097,39.839L175.941,89.461L183.1,85.733L157.255,36.111L150.097,39.839ZM176.794,26.289L195.212,79.119L202.759,76.488L188.288,34.978L188.436,34.927L226.14,68.337L235.833,64.958L217.416,12.127L209.869,14.758L224.159,55.75L224.011,55.802L186.487,22.909L176.794,26.289ZM262.991,-16.051L255.655,-1.689L262.651,-2.579L272.863,-17.306L262.991,-16.051ZM242.435,6.786L249.494,62.287L286.107,57.631L285.118,49.857L256.512,53.496L254.446,37.25L280.487,33.937L279.518,26.32L253.477,29.632L251.42,13.463L279.56,9.884L278.581,2.188L242.435,6.786ZM323.197,2.654L316.222,58.166L324.152,59.162L326.546,40.114L334.787,41.15C346.138,42.576 356.93,37.14 358.386,25.555C359.978,12.883 350.72,6.112 339.213,4.666L323.197,2.654ZM335.89,33.628L327.493,32.573L330.17,11.269L338.567,12.324C345.642,13.214 351.199,17.386 350.3,24.539C349.401,31.692 342.887,34.507 335.89,33.628M389.33,15.222L354.365,62.932L362.445,65.449L369.924,55.138L390.872,61.662L391.174,74.396L399.254,76.912L397.635,17.808L389.33,15.222ZM390.813,53.683L374.578,48.627L390.281,26.927L390.813,53.683ZM432.235,31.045L405.963,80.442L413.02,84.195L423.654,64.201L429.949,67.55L434.812,95.786L443.668,100.495L438.42,70.812C444.3,72.608 452.968,70.828 457.126,63.01C462.461,52.979 456.588,43.997 447.525,39.177L432.235,31.045ZM435.7,61.91L427.26,57.421L435.686,41.578L444.126,46.067C449.799,49.085 452.764,53.856 449.931,59.183C446.876,64.926 441.304,64.891 435.7,61.91" style="fill:rgb(255,83,0);fill-rule:nonzero;"/>
    </g>
</svg>
