<?xml version="1.0" encoding="UTF-8"?>
<svg id="Calque_2" data-name="Calque 2" xmlns="http://www.w3.org/2000/svg" viewBox="0 0 73.91 73.91">
  <g id="Calque_1-2" data-name="Calque 1">
    <g>
      <path d="M36.96,73.91c20.41,0,36.96-16.55,36.96-36.96S57.37,0,36.96,0,0,16.55,0,36.96s16.54,36.96,36.96,36.96" style="fill: #8eef72; stroke-width: 0px;"/>
      <path d="M47.51,24.17c-1.35,0-2.44,1.09-2.44,2.44s1.09,2.44,2.44,2.44,2.44-1.09,2.44-2.44-1.09-2.44-2.44-2.44M36.64,44.26c-3.75,0-6.79-3.04-6.79-6.78s3.04-6.78,6.79-6.78,6.79,3.04,6.79,6.78-3.04,6.78-6.79,6.78M36.64,27.02c-5.77,0-10.45,4.68-10.45,10.45s4.68,10.45,10.45,10.45,10.45-4.68,10.45-10.45-4.68-10.45-10.45-10.45M36.64,17.12c-5.53,0-6.22.02-8.39.12-7.39.34-11.5,4.44-11.84,11.84-.1,2.17-.12,2.87-.12,8.39s.02,6.22.12,8.39c.34,7.39,4.44,11.5,11.84,11.84,2.17.1,2.87.12,8.39.12s6.22-.02,8.39-.12c7.38-.34,11.5-4.44,11.84-11.84.1-2.17.12-2.86.12-8.39s-.02-6.22-.12-8.39c-.33-7.38-4.44-11.5-11.84-11.84-2.17-.1-2.87-.12-8.39-.12M36.64,20.79c5.43,0,6.08.02,8.23.12,5.52.25,8.09,2.87,8.34,8.34.1,2.15.12,2.79.12,8.22s-.02,6.08-.12,8.23c-.25,5.47-2.82,8.09-8.34,8.34-2.15.1-2.79.12-8.23.12s-6.08-.02-8.23-.12c-5.53-.25-8.09-2.88-8.34-8.35-.1-2.15-.12-2.79-.12-8.22s.02-6.08.12-8.22c.25-5.47,2.82-8.09,8.34-8.34,2.15-.1,2.79-.12,8.23-.12" style="fill: #3555fa; stroke-width: 0px;"/>
    </g>
  </g>
</svg>